<?xml version="1.0" encoding="utf-8"?><svg xml:space="preserve" viewBox="0 0 100 100" y="0" x="0" xmlns="http://www.w3.org/2000/svg" id="Layer_1" version="1.1" width="200px" height="200px" xmlns:xlink="http://www.w3.org/1999/xlink" style="width:100%;height:100%;background-size:initial;background-repeat-y:initial;background-repeat-x:initial;background-position-y:initial;background-position-x:initial;background-origin:initial;background-color:initial;background-clip:initial;background-attachment:initial;animation-play-state:paused" ><g class="ldl-scale" style="transform-origin:50% 50%;transform:rotate(0deg) scale(0.8, 0.8);animation-play-state:paused" ><path fill="#e15c64" d="M10.1 46.6c.9-8.7 4.4-17.2 10.4-23.6 3-3.2 6.4-5.9 10.2-8.1 3.8-2.1 8-3.5 12.3-4.3 8.6-1.6 17.7-.1 25.4 3.9 3.9 2 7.4 4.7 10.4 7.8 3 3.2 5.5 6.8 7.4 10.7-2.4-3.7-5.3-7-8.6-9.6-3.3-2.6-6.9-4.7-10.7-6-3.8-1.3-7.7-2-11.6-2.1-1 0-1.9 0-2.9.1l-2.8.3c-1.9.4-3.7.7-5.4 1.4-3.5 1.2-6.7 2.9-9.5 5-2.8 2.2-5.1 4.7-6.9 7.5-1.8 2.8-3.1 5.8-3.8 8.8-.7 3.1-.9 6.1-.7 9.1.3 3.7-2.5 6.9-6.1 7.2-3.7.3-6.9-2.5-7.2-6.1v-1.1l.1-.9z" style="fill:rgb(225, 92, 100);animation-play-state:paused" ></path>
<path fill="#f47e5f" d="M88.9 52.4C88 61.1 84.5 69.6 78.5 76c-3 3.2-6.4 5.9-10.2 8.1-3.8 2.1-8 3.5-12.3 4.3-8.6 1.6-17.7.1-25.4-3.9-3.9-2-7.4-4.7-10.4-7.8-3-3.2-5.5-6.8-7.4-10.7 2.4 3.7 5.3 7 8.6 9.6 3.3 2.6 6.9 4.7 10.7 6 3.8 1.3 7.7 2 11.6 2.1 1 0 1.9 0 2.9-.1l2.8-.3c1.9-.4 3.7-.7 5.4-1.4 3.5-1.2 6.7-2.9 9.5-5 2.8-2.2 5.1-4.7 6.9-7.5 1.8-2.8 3.1-5.8 3.8-8.8.7-3.1.9-6.1.7-9.1-.3-3.7 2.5-6.9 6.1-7.2 3.7-.3 6.9 2.5 7.2 6.1v1.1l-.1.9z" style="fill:rgb(0, 255, 0);animation-play-state:paused" ></path>
<metadata xmlns:d="https://loading.io/stock/" style="animation-play-state:paused" ><d:name style="animation-play-state:paused" >taiji</d:name>
<d:tags style="animation-play-state:paused" >soul,comet,meteor,tadpole,harmony,symmetry,taiji,spinner</d:tags>
<d:license style="animation-play-state:paused" >pro</d:license>
<d:slug style="animation-play-state:paused" >lhmnwo</d:slug></metadata></g><!-- generated by https://loading.io/ --></svg>